# xmcd
#
# Track frame offsets:
#	150
#	16985
#	36601
#	57530
#	74148
#	90122
#	104656
#	126008
#	146614
#	162605
#	180862
#	204414
#
# Disc length: 2982 seconds
#
# Revision: 0
# Processed by: cddbd v1.5.2PL0 Copyright (c) Steve Scherf et al.
# Submitted via: EZCDAudioConverter 3.1.7.1
#
DISCID=ae0ba40c
DTITLE=รวมศิลปิน - Reason of Love Vol.2
DYEAR=2015
DGENRE=
TTITLE0=เบิร์ด ธงไชย - เขียนคำว่ารัก
TTITLE1=แกงส้ม ธนทัต - ความรักสวยงามเสมอ
TTITLE2=นิว-จิ๋ว - เราถูกสร้างมาเพื่อกันและกัน
TTITLE3=เอิ๊ต ภัทรวี - You You You (New Version) (feat.Ammy The Bottom Blues)
TTITLE4=Da endophine - เรื่องของเรา (New Version)
TTITLE5=อ๊อฟ ปองศักดิ์ - Available
TTITLE6=ป๊อป ปองกูล - ยิ่งไม่รู้ ยิ่งต้องทำ
TTITLE7=เป้ Mild - ความรักไม่ผิด (feat.มาเรียม B5)
TTITLE8=ETC - ไม่ต้องรู้ว่าเราคบกันแบบไหน
TTITLE9=Season Five - กลืน
TTITLE10=Blue Shade - ถ้าเรายังคิดถึงกัน (Meeting point)
TTITLE11=Scrubb - รอยยิ้ม
EXTD=
EXTT0=
EXTT1=
EXTT2=
EXTT3=
EXTT4=
EXTT5=
EXTT6=
EXTT7=
EXTT8=
EXTT9=
EXTT10=
EXTT11=
PLAYORDER=
